<?xml version="1.0" standalone="no"?>
<!DOCTYPE svg PUBLIC "-//W3C//DTD SVG 20010904//EN"
 "http://www.w3.org/TR/2001/REC-SVG-20010904/DTD/svg10.dtd">
<svg version="1.0" xmlns="http://www.w3.org/2000/svg"
 width="208.000000pt" height="208.000000pt" viewBox="0 0 208.000000 208.000000"
 preserveAspectRatio="xMidYMid meet">
<metadata>
Created by potrace 1.11, written by Peter Selinger 2001-2013
</metadata>
<g transform="translate(0.000000,208.000000) scale(0.100000,-0.100000)"
fill="#000000" stroke="none">
<path d="M877 2005 c-481 -91 -812 -509 -784 -989 25 -417 316 -766 722 -868
127 -32 323 -32 450 0 341 85 606 349 697 693 31 118 31 347 0 464 -30 111
-111 270 -183 360 -121 150 -324 280 -509 325 -113 28 -290 34 -393 15z m301
-340 c229 -46 419 -220 461 -423 35 -170 -19 -322 -166 -469 -46 -45 -83 -85
-83 -90 0 -4 7 -48 14 -98 19 -125 20 -125 -109 -125 l-105 0 0 75 0 75 -35 0
-35 0 0 -75 0 -75 -80 0 -80 0 0 75 0 75 -35 0 -35 0 0 -75 0 -75 -105 0
c-129 0 -128 -1 -109 128 16 108 15 113 -56 172 -28 23 -70 70 -94 104 -146
206 -123 453 59 632 152 151 370 213 593 169z"/>
<path d="M744 1206 c-108 -47 -106 -227 2 -272 106 -44 214 25 214 136 0 112
-111 181 -216 136z"/>
<path d="M1192 1200 c-45 -28 -72 -76 -72 -130 0 -111 108 -180 214 -136 109
46 109 226 0 272 -47 20 -103 17 -142 -6z"/>
</g>
</svg>
